<?xml version="1.0" encoding="UTF-8"?>
<svg width="6px" height="11px" viewBox="0 0 6 11" version="1.1" xmlns="http://www.w3.org/2000/svg" xmlns:xlink="http://www.w3.org/1999/xlink">
    <!-- Generator: Sketch 62 (91390) - https://sketch.com -->
    <title>iconfont2备份 6</title>
    <desc>Created with Sketch.</desc>
    <g id="班级管理" stroke="none" stroke-width="1" fill="none" fill-rule="evenodd">
        <g transform="translate(-280.000000, -23.000000)" fill="#505A64" fill-rule="nonzero" id="iconfont2备份-6">
            <g transform="translate(283.000000, 28.500000) scale(-1, 1) translate(-283.000000, -28.500000) translate(280.000000, 23.000000)">
                <path d="M0.0816581864,5.77260255 C0.0998687776,5.80017273 0.12108235,5.8263307 0.14534708,5.85057898 C0.145893076,5.85110856 0.14647119,5.85155789 0.147033245,5.85208747 L5.15322756,10.8549035 C5.34683151,11.0483922 5.66092407,11.0483922 5.85470467,10.854743 C6.04832469,10.6612543 6.04832469,10.3473907 5.85470467,10.1537415 L1.19780363,5.5 L5.85486526,0.846270501 C6.04848527,0.652781764 6.04832469,0.338741696 5.85470467,0.145092481 C5.66108465,-0.0483641604 5.34683151,-0.0483641603 5.15322756,0.145092481 L0.147033245,5.14790851 C0.14647119,5.14843809 0.145893076,5.14888743 0.14534708,5.1494491 C-0.0242169707,5.31872166 -0.0453823669,5.58033345 0.0816581864,5.77260255 Z" id="路径"></path>
            </g>
        </g>
    </g>
</svg>