<?xml version="1.0" encoding="UTF-8"?>
<svg width="30px" height="30px" viewBox="0 0 30 30" version="1.1" xmlns="http://www.w3.org/2000/svg" xmlns:xlink="http://www.w3.org/1999/xlink">
    <!-- Generator: Sketch 62 (91390) - https://sketch.com -->
    <title>编组</title>
    <desc>Created with Sketch.</desc>
    <g id="1.1" stroke="none" stroke-width="1" fill="none" fill-rule="evenodd">
        <g id="1.1-测评信息-提交" transform="translate(-709.000000, -379.000000)">
            <g id="编组" transform="translate(709.000000, 379.000000)">
                <path d="M8,0 L30,0 L30,0 L30,22 C30,26.418278 26.418278,30 22,30 L0,30 L0,30 L0,8 C-5.41083001e-16,3.581722 3.581722,8.11624501e-16 8,0 Z" id="矩形备份-2" fill="#464646"></path>
                <g id="yinpin-3" transform="translate(9.000000, 6.000000)" fill="#FFFFFF" fill-rule="nonzero">
                    <path d="M6,0.00151936733 C4.27739937,-0.00583718261 2.87521553,1.49159324 2.86765714,3.34663384 L2.86765714,9.23344456 C2.87370647,11.088483 4.27465916,12.5872321 5.99725714,12.5815336 C6.82473414,12.5846518 7.61947723,12.2336721 8.20664939,11.6057863 C8.79382154,10.9779005 9.12532388,10.1245427 9.12822857,9.23344456 L9.12822857,3.34663384 C9.12142455,1.49159441 7.71985638,-0.00649524143 5.99725714,2.11785358e-05 L6,0.00151936733 Z M0.651428571,8.39753516 C0.456439501,8.39689815 0.271527647,8.49075144 0.147878949,8.65311525 C0.0242302503,8.81547906 -0.0250372606,9.02912803 0.0137142857,9.23492143 L0,9.23492143 C0,12.4929005 2.27382857,15.1793301 5.21691429,15.5913774 L5.21691429,17.3252248 L4.17462857,17.3252248 C3.74343174,17.323589 3.39243822,17.6982649 3.39017143,18.162611 C3.3924374,18.6263792 3.74259501,19.0008174 4.17325714,18.9999987 L7.82674286,18.9999987 C8.2568701,18.9999987 8.60619332,18.6258025 8.60845714,18.162611 C8.60619332,17.6994196 8.2568701,17.3252184 7.82674286,17.3252248 L6.78308571,17.3252248 L6.78308571,15.5913774 C9.63977143,15.192622 11.8601143,12.6464951 11.9862857,9.51405019 C11.9949799,9.46785699 11.999572,9.42087759 12,9.37374737 C12,9.35750178 11.9958857,9.34273307 11.9958857,9.32796435 C11.9958857,9.29547317 12,9.26593574 12,9.23492143 L11.9862857,9.23492143 C12.0388918,8.95563175 11.9297205,8.66977257 11.7098731,8.51114973 C11.4900256,8.35252689 11.2030029,8.35252689 10.9831555,8.51114973 C10.763308,8.66977257 10.6541368,8.95563175 10.7067429,9.23492143 L10.6930286,9.23492143 C10.6930286,12.0070097 8.59062857,14.2562853 5.99725714,14.2562853 C3.40525714,14.2562853 1.30148571,12.0070097 1.30148571,9.23492143 L1.28777143,9.23492143 C1.32754192,9.02922601 1.27884658,8.8151935 1.15528362,8.65259258 C1.03172065,8.48999167 0.846530857,8.39624639 0.651428571,8.39753516 Z" id="形状"></path>
                </g>
            </g>
        </g>
    </g>
</svg>