<?xml version="1.0" encoding="UTF-8"?>
<svg width="70px" height="70px" viewBox="0 0 70 70" version="1.1" xmlns="http://www.w3.org/2000/svg" xmlns:xlink="http://www.w3.org/1999/xlink">
    <!-- Generator: Sketch 62 (91390) - https://sketch.com -->
    <title>编组</title>
    <desc>Created with Sketch.</desc>
    <g id="班级管理" stroke="none" stroke-width="1" fill="none" fill-rule="evenodd">
        <g id="课程详情-预习-详情" transform="translate(-319.000000, -754.000000)">
            <g id="编组" transform="translate(319.000000, 754.000000)">
                <circle id="椭圆形" fill="#FFFFFF" opacity="0.702404204" cx="35" cy="35" r="35"></circle>
                <g id="yinpin-2" transform="translate(12.816901, 12.816901)" fill="#4E4E4E" fill-rule="nonzero" opacity="0.797874814">
                    <path d="M12.2284802,14.532858 C11.7561562,14.532858 11.3031774,14.7189778 10.9691939,15.0502695 C10.6352104,15.3815612 10.4475805,15.8308891 10.4475805,16.2994063 L10.4475805,30.2644479 C10.4475805,31.2408419 11.2455355,32.0323657 12.2298629,32.0323657 C13.2141902,32.0323657 14.0121474,31.2408419 14.0121474,30.2644479 L14.0121474,16.3021494 C14.0128807,15.8326814 13.8251956,15.3822317 13.490534,15.0502674 C13.1558723,14.718303 12.7017627,14.5321305 12.2284802,14.532858 Z M22.6760563,0 C22.2037324,0 21.7507536,0.186117732 21.4167701,0.51740942 C21.0827866,0.848701107 20.8951567,1.29802906 20.8951567,1.76654625 L20.8951567,40.62782 C20.8951567,41.6034565 21.6924926,42.3943662 22.6760563,42.3943662 C23.6596201,42.3943662 24.456956,41.6034565 24.456956,40.62782 L24.456956,1.76654625 C24.456956,1.29802906 24.2693261,0.848701107 23.9353426,0.51740942 C23.6013591,0.186117732 23.1483803,0 22.6760563,0 Z M43.5712087,18.2579684 C43.0979262,18.2572389 42.6438165,18.4434113 42.3091549,18.7753757 C41.9744933,19.1073401 41.7868081,19.5577898 41.7875415,20.0272577 L41.7875415,27.6749765 C41.7875415,28.6513705 42.5854986,29.4428942 43.569826,29.4428942 C44.5541534,29.4428942 45.3521105,28.6513705 45.3521105,27.6749765 L45.3521105,20.0245146 C45.3528426,19.5555223 45.1655367,19.1054894 44.8314736,18.7736042 C44.4974106,18.441719 44.0440122,18.2552253 43.5712087,18.2552253 L43.5712087,18.2579684 Z M1.78090401,18.2579684 C1.30810051,18.2579678 0.854702109,18.4444621 0.520639016,18.7763473 C0.186575922,19.1082325 -0.000729887743,19.5582654 2.13761827e-06,20.0272577 L2.13761827e-06,27.6749765 C2.13761827e-06,28.6513705 0.797959289,29.4428942 1.78228667,29.4428942 C2.76661405,29.4428942 3.5645712,28.6513705 3.5645712,27.6749765 L3.5645712,20.0245146 C3.56530453,19.5550467 3.37761941,19.104597 3.04295776,18.7726326 C2.70829611,18.4406682 2.25418648,18.2544958 1.78090401,18.2552232 L1.78090401,18.2579684 Z M33.1236325,7.03052266 C32.65035,7.02979523 32.1962404,7.21596768 31.8615787,7.54793207 C31.5269171,7.87989646 31.3392319,8.33034614 31.3399653,8.79981412 L31.3399653,35.446134 C31.3399653,36.4232855 32.1385415,37.2154233 33.1236325,37.2154233 C34.1087235,37.2154233 34.9072997,36.4232855 34.9072997,35.446134 L34.9072997,8.79981412 C34.9080331,8.33034614 34.720348,7.87989646 34.3856863,7.54793207 C34.0510246,7.21596768 33.596915,7.02979523 33.1236325,7.03052266 Z" id="形状"></path>
                </g>
            </g>
        </g>
    </g>
</svg>