<?xml version="1.0" encoding="UTF-8"?>
<svg width="28px" height="28px" viewBox="0 0 28 28" version="1.1" xmlns="http://www.w3.org/2000/svg" xmlns:xlink="http://www.w3.org/1999/xlink">
    <!-- Generator: Sketch 62 (91390) - https://sketch.com -->
    <title>jiaoshiziliao</title>
    <desc>Created with Sketch.</desc>
    <g id="班级管理" stroke="none" stroke-width="1" fill="none" fill-rule="evenodd" opacity="0.65">
        <g transform="translate(-9.000000, -108.000000)" fill="#FFFFFF" fill-rule="nonzero" id="jiaoxuezhongxin备份-3">
            <g transform="translate(9.000000, 108.000000)">
                <path d="M27,22.7973856 C27,24.5620915 25.4828694,26 23.6038544,26 L5.71841542,26 C3.11563169,26 1,24.0130719 1,21.5686275 L1,5.18954248 C1,3.4248366 2.53104925,2 4.39614561,2 L23.6038544,2 C25.4828694,2 27,3.4379085 27,5.18954248 L27,22.7973856 Z M24.773,19.882 L6.45763082,19.8823529 C5.05314563,19.8823529 3.90402139,20.8352941 3.90402139,22 C3.90402139,22.8072617 4.45605193,23.5127932 5.26252414,23.8698112 C5.41061571,23.8951645 5.56282981,23.9084967 5.71841542,23.9084967 L23.6038544,23.9084967 C24.2441113,23.9084967 24.7730193,23.4117647 24.7730193,22.8104575 L24.773,19.882 Z M23.6038544,4.09150327 L4.39614561,4.09150327 C3.75588865,4.09150327 3.22698073,4.58823529 3.22698073,5.18954248 L3.22558264,19.0372245 C4.08249689,18.393428 5.21735013,18 6.45763082,18 L24.773,17.999 L24.7730193,5.18954248 C24.7730193,4.58823529 24.2441113,4.09150327 23.6038544,4.09150327 Z" id="形状结合"></path>
                <path d="M18.8544153,9 L9.14558473,9 C8.51551313,9 8,8.55 8,8 C8,7.45 8.51551313,7 9.14558473,7 L18.8544153,7 C19.4844869,7 20,7.45 20,8 C20,8.55 19.4988067,9 18.8544153,9 Z" id="路径"></path>
                <path d="M18.8544153,15 L9.14558473,15 C8.51551313,15 8,14.55 8,14 C8,13.45 8.51551313,13 9.14558473,13 L18.8544153,13 C19.4844869,13 20,13.45 20,14 C20,14.55 19.4988067,15 18.8544153,15 Z" id="路径"></path>
            </g>
        </g>
    </g>
</svg>