<?xml version="1.0" encoding="UTF-8"?>
<svg width="20px" height="20px" viewBox="0 0 20 20" version="1.1" xmlns="http://www.w3.org/2000/svg" xmlns:xlink="http://www.w3.org/1999/xlink">
    <!-- Generator: Sketch 62 (91390) - https://sketch.com -->
    <title>shouji-2</title>
    <desc>Created with Sketch.</desc>
    <defs>
        <polygon id="path-1" points="0 0 14 0 14 16 0 16"></polygon>
    </defs>
    <g id="登陆" stroke="none" stroke-width="1" fill="none" fill-rule="evenodd">
        <g id="登陆3" transform="translate(-228.000000, -593.000000)">
            <g id="编组-4" transform="translate(228.000000, 593.000000)">
                <g id="编组" transform="translate(3.000000, 2.000000)">
                    <mask id="mask-2" fill="white">
                        <use xlink:href="#path-1"></use>
                    </mask>
                    <g id="Clip-2"></g>
                    <path d="M6.43938239,10.1113633 C6.33457031,10.2167758 6.19659649,10.2684665 6.05862267,10.2684665 C5.92062701,10.2684665 5.78265319,10.2167758 5.67784111,10.1113633 L4.06232484,8.51336976 C3.85278801,8.30439726 3.85278801,7.9670014 4.06232484,7.75985906 C4.27373916,7.55095351 4.61424196,7.55095351 4.82386611,7.75985906 L6.05862267,8.98291622 L9.1778353,5.89394863 C9.38916229,5.6850654 9.72977425,5.6850654 9.93937657,5.89394863 C10.1507036,6.10109098 10.1507036,6.43857611 9.93937657,6.64748165 L6.43938239,10.1113633 Z M12.9224274,3.30494825 C12.3198398,3.26031032 11.0553272,3.10860829 9.74025328,2.59614245 C8.3954233,2.0729635 7.40864849,1.4873584 7.00171304,1.22841372 C6.59654592,1.4873584 5.60629994,2.07479365 4.2632383,2.59614245 C2.94986723,3.10677813 1.68714478,3.25856944 1.07757119,3.30494825 L1.07757119,9.02400545 C1.07757119,11.6826633 5.04388196,14.9340907 7.0000102,14.9340907 C7.75794931,14.9340907 9.23549176,14.3287779 10.6886487,13.0003306 C12.0893449,11.7201592 12.9241302,10.2327785 12.9241302,9.02400545 L12.9224274,3.30494825 Z M7.0000102,16 C4.55311432,16 0,12.4146585 0,9.02400545 L0,2.55150451 C0,2.39440129 0.132690648,2.26765186 0.298652198,2.26405851 L0.695108625,2.25691644 C0.710805331,2.25691644 2.26346929,2.22658496 3.86678187,1.60165384 C5.51196689,0.962416252 6.57037019,0.228501602 6.58257389,0.219618653 L6.81656178,0.057114241 C6.86902239,0.0196183735 6.93366488,0 6.99822003,0 C7.06113784,0 7.125693,0.017877494 7.17815362,0.0553510425 L7.41565634,0.219618653 C7.42613536,0.226760723 8.48803168,0.962416252 10.1314265,1.60165384 C11.7347609,2.22475481 13.2891277,2.25691644 13.3048899,2.25691644 L13.6978534,2.26405851 C13.8637276,2.26765186 13.9965056,2.39440129 13.9965056,2.55150451 L14,9.02400545 C14.0017014,12.4146585 9.45031177,16 7.0000102,16 L7.0000102,16 Z" id="Fill-1" fill="#BEC6CF" mask="url(#mask-2)"></path>
                </g>
            </g>
        </g>
    </g>
</svg>