<?xml version="1.0" encoding="UTF-8"?>
<svg width="28px" height="28px" viewBox="0 0 28 28" version="1.1" xmlns="http://www.w3.org/2000/svg" xmlns:xlink="http://www.w3.org/1999/xlink">
    <!-- Generator: Sketch 62 (91390) - https://sketch.com -->
    <title>jiaoshiziliao</title>
    <desc>Created with Sketch.</desc>
    <defs>
        <linearGradient x1="15.6159535%" y1="19.9438603%" x2="88.8500915%" y2="84.7222222%" id="linearGradient-1">
            <stop stop-color="#54C6FF" offset="0%"></stop>
            <stop stop-color="#2A94FF" offset="100%"></stop>
        </linearGradient>
    </defs>
    <g id="班级管理" stroke="none" stroke-width="1" fill="none" fill-rule="evenodd" opacity="0.650018601">
        <g transform="translate(-9.000000, -291.000000)" fill="url(#linearGradient-1)" fill-rule="nonzero" id="qiye-apply备份">
            <g transform="translate(9.000000, 291.000000)">
                <path d="M25.2,22.4615385 L24.4,22.4615385 L24.4,11.6923077 C24.4,10 22.96,8.61538462 21.2,8.61538462 L16.4,8.61538462 L16.4,7.07692308 C16.4,5.38461538 14.96,4 13.2,4 L6.8,4 C5.04,4 3.6,5.38461538 3.6,7.07692308 L3.6,22.4615385 L2.8,22.4615385 C2.352,22.4615385 2,22.8 2,23.2307692 C2,23.6615385 2.352,24 2.8,24 L25.2,24 C25.648,24 26,23.6615385 26,23.2307692 C26,22.8 25.648,22.4615385 25.2,22.4615385 Z M14.8,8.61538462 L14.8,10.1538462 L14.8,22.4615385 L5.2,22.4615385 L5.2,7.07692308 C5.2,6.23076923 5.92,5.53846154 6.8,5.53846154 L13.2,5.53846154 C14.08,5.53846154 14.8,6.23076923 14.8,7.07692308 L14.8,8.61538462 Z M22.8,22.4615385 L16.4,22.4615385 L16.4,10.1538462 L21.2,10.1538462 C22.08,10.1538462 22.8,10.8461538 22.8,11.6923077 L22.8,22.4615385 Z M12.4,8.61538462 L7.6,8.61538462 C7.152,8.61538462 6.8,8.95384615 6.8,9.38461538 C6.8,9.81538462 7.152,10.1538462 7.6,10.1538462 L12.4,10.1538462 C12.848,10.1538462 13.2,9.81538462 13.2,9.38461538 C13.2,8.95384615 12.848,8.61538462 12.4,8.61538462 Z M12.4,13.2307692 L7.6,13.2307692 C7.152,13.2307692 6.8,13.5692308 6.8,14 C6.8,14.4307692 7.152,14.7692308 7.6,14.7692308 L12.4,14.7692308 C12.848,14.7692308 13.2,14.4307692 13.2,14 C13.2,13.5692308 12.848,13.2307692 12.4,13.2307692 Z M12.4,17.8461538 L7.6,17.8461538 C7.152,17.8461538 6.8,18.1846154 6.8,18.6153846 C6.8,19.0461538 7.152,19.3846154 7.6,19.3846154 L12.4,19.3846154 C12.848,19.3846154 13.2,19.0461538 13.2,18.6153846 C13.2,18.1846154 12.848,17.8461538 12.4,17.8461538 Z M20.4,13.2307692 L18.8,13.2307692 C18.352,13.2307692 18,13.5692308 18,14 C18,14.4307692 18.352,14.7692308 18.8,14.7692308 L20.4,14.7692308 C20.848,14.7692308 21.2,14.4307692 21.2,14 C21.2,13.5692308 20.848,13.2307692 20.4,13.2307692 Z M20.4,17.8461538 L18.8,17.8461538 C18.352,17.8461538 18,18.1846154 18,18.6153846 C18,19.0461538 18.352,19.3846154 18.8,19.3846154 L20.4,19.3846154 C20.848,19.3846154 21.2,19.0461538 21.2,18.6153846 C21.2,18.1846154 20.848,17.8461538 20.4,17.8461538 Z" id="形状"></path>
            </g>
        </g>
    </g>
</svg>