<?xml version="1.0" encoding="UTF-8"?>
<svg width="20px" height="21px" viewBox="0 0 20 21" version="1.1" xmlns="http://www.w3.org/2000/svg" xmlns:xlink="http://www.w3.org/1999/xlink">
    <!-- Generator: Sketch 62 (91390) - https://sketch.com -->
    <title>编组 4备份 2</title>
    <desc>Created with Sketch.</desc>
    <g id="教师考核模版" stroke="none" stroke-width="1" fill="none" fill-rule="evenodd">
        <g transform="translate(-575.000000, -269.000000)" id="编组-4备份-2">
            <g transform="translate(575.000000, 269.000000)">
                <g id="编组备份-3" fill="#FF5F5F">
                    <circle id="椭圆形备份" cx="10" cy="10" r="10"></circle>
                </g>
                <path d="M10,8.97359413 L6.24007513,5.21250448 C6.0568165,5.02923034 5.78971124,4.95765364 5.5393753,5.02473663 C5.28903936,5.09181962 5.09350474,5.2873708 5.02642743,5.53772793 C4.95935012,5.78808506 5.03092077,6.05521294 5.2141794,6.23848707 L8.9732578,9.99957673 L5.21248648,13.7598199 C5.02922786,13.943094 4.95765722,14.2102219 5.02473454,14.460579 C5.09181185,14.7109361 5.28734648,14.9064873 5.53768241,14.9735703 C5.78801835,15.0406533 6.05512361,14.9690766 6.23838224,14.7858025 L10,11.0264058 L13.7599249,14.7874955 C13.9431835,14.9707697 14.2102888,15.0423464 14.4606247,14.9752634 C14.7109606,14.9081804 14.9064953,14.7126292 14.9735726,14.4622721 C15.0406499,14.2119149 14.9690792,13.944787 14.7858206,13.7615129 L11.0267422,9.99957673 L14.7875135,6.23933358 C14.9707721,6.05605944 15.0423428,5.78893156 14.9752655,5.53857443 C14.9081882,5.2882173 14.7126535,5.09266612 14.4623176,5.02558314 C14.2119816,4.95850015 13.9448764,5.03007686 13.7616178,5.21335101 L10,8.97274763 L10,8.97359413 Z" id="路径备份-2" fill="#FFFFFF" fill-rule="nonzero"></path>
            </g>
        </g>
    </g>
</svg>