<?xml version="1.0" encoding="UTF-8"?>
<svg width="10px" height="10px" viewBox="0 0 10 10" version="1.1" xmlns="http://www.w3.org/2000/svg" xmlns:xlink="http://www.w3.org/1999/xlink">
    <!-- Generator: Sketch 62 (91390) - https://sketch.com -->
    <title>编组 4</title>
    <desc>Created with Sketch.</desc>
    <g id="1.1" stroke="none" stroke-width="1" fill="none" fill-rule="evenodd">
        <g id="1.1-学生测评" transform="translate(-382.000000, -205.000000)" fill="#505A64" fill-rule="nonzero">
            <g id="编组-4" transform="translate(382.000000, 205.000000)">
                <path d="M5,3.97359413 L1.24007513,0.212504477 C1.0568165,0.0292303376 0.789711237,-0.0423463613 0.539375299,0.0247366307 C0.289039361,0.0918196228 0.093504737,0.287370803 0.0264274284,0.537727934 C-0.0406498802,0.788085064 0.0309207657,1.05521294 0.214179396,1.23848707 L3.9732578,4.99957673 L0.212486482,8.75981988 C0.0292278602,8.94309402 -0.0423427766,9.21022189 0.0247345379,9.46057902 C0.0918118524,9.71093615 0.287346478,9.90648732 0.537682415,9.97357031 C0.788018351,10.0406533 1.05512361,9.96907659 1.23838224,9.78580245 L5,6.02640583 L8.75992486,9.78749551 C8.94318348,9.97076966 9.21028875,10.0423464 9.46062469,9.97526337 C9.71096064,9.90818038 9.90649526,9.7126292 9.97357257,9.46227206 C10.0406499,9.21191493 9.96907923,8.94478705 9.78582059,8.76151291 L6.02674218,4.99957673 L9.7875135,1.23933358 C9.97077213,1.05605944 10.0423428,0.788931565 9.97526546,0.538574434 C9.90818815,0.288217302 9.71265352,0.0926661245 9.46231758,0.0255831382 C9.21198164,-0.0414998482 8.94487637,0.0300768589 8.76161775,0.213351006 L5,3.97274763 L5,3.97359413 Z" id="路径备份-2"></path>
            </g>
        </g>
    </g>
</svg>