<?xml version="1.0" encoding="UTF-8"?>
<svg width="8px" height="5px" viewBox="0 0 8 5" version="1.1" xmlns="http://www.w3.org/2000/svg" xmlns:xlink="http://www.w3.org/1999/xlink">
    <!-- Generator: Sketch 62 (91390) - https://sketch.com -->
    <title>iconfont2备份 6</title>
    <desc>Created with Sketch.</desc>
    <g id="试听课程" stroke="none" stroke-width="1" fill="none" fill-rule="evenodd">
        <g transform="translate(-1679.000000, -32.000000)" fill="#505A64" fill-rule="nonzero" id="编组-2">
            <g transform="translate(-78.000000, -1.000000)">
                <g id="iconfont2备份-6" transform="translate(1761.000000, 35.500000) scale(-1, 1) rotate(-90.000000) translate(-1761.000000, -35.500000) translate(1759.000000, 32.000000)">
                    <path d="M0.0544387909,3.67347435 C0.066579185,3.69101901 0.0807215667,3.70766499 0.096898053,3.72309571 C0.0972620507,3.72343272 0.09764746,3.72371866 0.0980221635,3.72405566 L3.43548504,6.90766586 C3.56455434,7.03079506 3.77394938,7.03079506 3.90313645,6.90756374 C4.03221646,6.78443455 4.03221646,6.5847032 3.90313645,6.46147188 L0.798535754,3.5 L3.9032435,0.538535773 C4.03232352,0.415406577 4.03221646,0.215562898 3.90313645,0.0923315788 C3.77405644,-0.030777193 3.56455434,-0.0307771929 3.43548504,0.0923315788 L0.0980221635,3.27594178 C0.0976474601,3.27627878 0.0972620507,3.27656473 0.096898053,3.27692215 C-0.0161446471,3.38464105 -0.0302549113,3.55112129 0.0544387909,3.67347435 Z" id="路径"></path>
                </g>
            </g>
        </g>
    </g>
</svg>