<?xml version="1.0" encoding="UTF-8"?>
<svg width="19px" height="11px" viewBox="0 0 19 11" version="1.1" xmlns="http://www.w3.org/2000/svg" xmlns:xlink="http://www.w3.org/1999/xlink">
    <!-- Generator: Sketch 62 (91390) - https://sketch.com -->
    <title>iconfont2</title>
    <desc>Created with Sketch.</desc>
    <g id="班级管理" stroke="none" stroke-width="1" fill="none" fill-rule="evenodd">
        <g transform="translate(-509.000000, -125.000000)" fill="#505A64" fill-rule="nonzero" id="iconfont2">
            <g transform="translate(518.500000, 130.500000) rotate(-90.000000) translate(-518.500000, -130.500000) translate(513.500000, 121.500000)">
                <path d="M0.62248728,8.8965128 C0.649803166,8.93661488 0.681623525,8.97466284 0.718020619,9.00993306 C0.718839614,9.01070335 0.719706785,9.01135694 0.720549868,9.01212723 L8.22984133,16.2889505 C8.52024727,16.5703887 8.9913861,16.5703887 9.282057,16.2887171 C9.57248703,16.007279 9.57248703,15.5507502 9.282057,15.2690786 L2.29670545,8.5 L9.28229788,1.73093891 C9.57272791,1.44950075 9.57248703,0.992715195 9.282057,0.711043609 C8.99162698,0.42965213 8.52024727,0.429652131 8.22984133,0.711043609 L0.720549868,7.98786692 C0.719706785,7.98863722 0.718839614,7.9892908 0.718020619,7.99010778 C0.463674544,8.23632241 0.43192645,8.61684865 0.62248728,8.8965128 Z" id="路径"></path>
            </g>
        </g>
    </g>
</svg>