<?xml version="1.0" encoding="UTF-8"?>
<svg width="30px" height="30px" viewBox="0 0 30 30" version="1.1" xmlns="http://www.w3.org/2000/svg" xmlns:xlink="http://www.w3.org/1999/xlink">
    <!-- Generator: Sketch 62 (91390) - https://sketch.com -->
    <title>编组 5</title>
    <desc>Created with Sketch.</desc>
    <g id="1.1" stroke="none" stroke-width="1" fill="none" fill-rule="evenodd">
        <g id="1.1-测评信息-提交" transform="translate(-389.000000, -379.000000)">
            <g id="编组-5" transform="translate(389.000000, 379.000000)">
                <path d="M8,0 L30,0 L30,0 L30,22 C30,26.418278 26.418278,30 22,30 L0,30 L0,30 L0,8 C-5.41083001e-16,3.581722 3.581722,8.11624501e-16 8,0 Z" id="矩形" fill="#464646"></path>
                <g id="tupian" transform="translate(3.000000, 7.000000)" fill="#FFFFFF" fill-rule="nonzero">
                    <path d="M-5.5067062e-13,16 L23.0728923,16 L23.0728923,14.0468756 C23.0728923,14.0468756 21.8509942,12.056111 20.7184132,10.8086787 C19.8759722,9.88082866 18.6179988,9.61820882 17.5204683,10.7580296 L15.5485722,12.525584 L11.2508421,7.42470425 C9.65030669,5.52509858 7.0312581,5.52509858 5.43072271,7.42470425 C2.72566959,10.4235112 0.915428692,12.528031 -5.5067062e-13,13.7382638 C-5.5067062e-13,13.7382638 -5.5067062e-13,14.4921759 -5.5067062e-13,16 Z" id="路径"></path>
                    <path d="M15.0728923,2 C15.0728923,3.1045695 15.9683228,4 17.0728923,4 C18.1774618,4 19.0728923,3.1045695 19.0728923,2 C19.0728923,0.8954305 18.1774618,0 17.0728923,0 C15.9683228,0 15.0728923,0.8954305 15.0728923,2 L15.0728923,2 Z" id="路径"></path>
                </g>
            </g>
        </g>
    </g>
</svg>