<?xml version="1.0" encoding="UTF-8"?>
<svg width="10px" height="19px" viewBox="0 0 10 19" version="1.1" xmlns="http://www.w3.org/2000/svg" xmlns:xlink="http://www.w3.org/1999/xlink">
    <!-- Generator: Sketch 62 (91390) - https://sketch.com -->
    <title></title>
    <desc>Created with Sketch.</desc>
    <g id="班级管理" stroke="none" stroke-width="1" fill="none" fill-rule="evenodd">
        <g id="课程表-无弹窗" transform="translate(-244.000000, -369.000000)" fill="#4E4E4E" fill-rule="nonzero">
            <g id="iconfont2" transform="translate(249.000000, 378.500000) scale(-1, 1) translate(-249.000000, -378.500000) translate(244.000000, 369.000000)">
                <path d="M0.136096977,9.4460769 C0.166447963,9.49119174 0.201803917,9.53399569 0.242245133,9.57367469 C0.243155127,9.57454127 0.24411865,9.57527656 0.245055409,9.57614314 L8.58871259,17.7625694 C8.91138585,18.0791873 9.43487344,18.0791873 9.75784112,17.7623068 C10.0805411,17.4456888 10.0805411,16.9320939 9.75784112,16.6152134 L1.99633938,9 L9.75810876,1.38480627 C10.0808088,1.06818834 10.0805411,0.554304594 9.75784112,0.23742406 C9.43514109,-0.0791413534 8.91138586,-0.0791413532 8.58871259,0.23742406 L0.245055409,8.42385029 C0.24411865,8.42471687 0.243155127,8.42545215 0.242245133,8.42637126 C-0.0403616178,8.70336271 -0.0756372782,9.13145473 0.136096977,9.4460769 Z" id="路径" transform="translate(5.000000, 9.000000) scale(-1, 1) translate(-5.000000, -9.000000) "></path>
            </g>
        </g>
    </g>
</svg>
