<?xml version="1.0" encoding="UTF-8"?>
<svg width="28px" height="28px" viewBox="0 0 28 28" version="1.1" xmlns="http://www.w3.org/2000/svg" xmlns:xlink="http://www.w3.org/1999/xlink">
    <!-- Generator: Sketch 62 (91390) - https://sketch.com -->
    <title></title>
    <desc>Created with Sketch.</desc>
    <g id="班级管理" stroke="none" stroke-width="1" fill="none" fill-rule="evenodd" opacity="0.650018601">
        <g transform="translate(-42.000000, -413.000000)" fill="#FFFFFF" fill-rule="nonzero" id="shiting">
            <g transform="translate(42.000000, 413.000000)">
                <path d="M22.535,12.2333333 L22.535,12.1421333 C22.535,7.65306667 18.93,4 14.5,4 C10.07,4 6.465,7.648 6.465,12.1421333 L6.465,12.2333333 C3.935,12.664 2,14.8832 2,17.5685333 C2,20.5629333 4.405,22.9949333 7.355,22.9949333 C7.85,22.9949333 8.25,22.5896 8.25,22.088 L8.25,12.1421333 C8.25,8.6512 11.055,5.8088 14.5,5.8088 C17.945,5.8088 20.75,8.64613333 20.75,12.1421333 L20.75,22.0930667 C20.75,22.5946667 21.15,23 21.645,23 C24.6,23 27,20.5629333 27,17.5736 C27,14.8832 25.065,12.664 22.535,12.2333333 Z M3.785,17.5685333 C3.785,15.8864 4.925,14.4829333 6.465,14.0776 L6.465,21.0594667 C4.93,20.6541333 3.785,19.2506667 3.785,17.5685333 Z M22.535,21.0594667 L22.535,14.0776 C24.07,14.4829333 25.215,15.8864 25.215,17.5685333 C25.215,19.2506667 24.07,20.6541333 22.535,21.0594667 Z" id="形状"></path>
                <path d="M10.9020157,15 C10.4031355,15 10,15.383693 10,15.8585132 L10,20.1414868 C10,20.616307 10.4031355,21 10.9020157,21 C11.4008959,21 11.8040314,20.616307 11.8040314,20.1414868 L11.8040314,15.8585132 C11.7989922,15.383693 11.3958567,15 10.9020157,15 L10.9020157,15 Z M18.0979843,15 C17.5991041,15 17.1959686,15.383693 17.1959686,15.8585132 L17.1959686,20.1414868 C17.1959686,20.616307 17.5991041,21 18.0979843,21 C18.5968645,21 19,20.616307 19,20.1414868 L19,15.8585132 C19,15.383693 18.5968645,15 18.0979843,15 L18.0979843,15 Z M14.5,15.8585132 C14.0011198,15.8585132 13.5979843,16.2422062 13.5979843,16.7170264 L13.5979843,19.2877698 C13.5979843,19.7625899 14.0011198,20.146283 14.5,20.146283 C14.9988802,20.146283 15.4020157,19.7625899 15.4020157,19.2877698 L15.4020157,16.7170264 C15.4020157,16.2422062 14.9988802,15.8585132 14.5,15.8585132 Z" id="形状"></path>
            </g>
        </g>
    </g>
</svg>
