<?xml version="1.0" encoding="UTF-8"?>
<svg width="28px" height="28px" viewBox="0 0 28 28" version="1.1" xmlns="http://www.w3.org/2000/svg" xmlns:xlink="http://www.w3.org/1999/xlink">
    <!-- Generator: Sketch 62 (91390) - https://sketch.com -->
    <title>退出</title>
    <desc>Created with Sketch.</desc>
    <defs>
        <linearGradient x1="28.9311465%" y1="0%" x2="94.5987654%" y2="86.2295378%" id="linearGradient-1">
            <stop stop-color="#54C6FF" offset="0%"></stop>
            <stop stop-color="#2A94FF" offset="100%"></stop>
        </linearGradient>
    </defs>
    <g id="班级管理" stroke="none" stroke-width="1" fill="none" fill-rule="evenodd">
        <g transform="translate(-1846.000000, -14.000000)" fill-rule="nonzero" id="tuichu">
            <g transform="translate(1846.000000, 14.000000)">
                <path d="M0,14 C0,21.7319865 6.2680135,28 14,28 C21.7319865,28 28,21.7319865 28,14 C28,6.2680135 21.7319865,0 14,0 C6.2680135,0 0,6.2680135 0,14 Z" id="路径" fill="#E7EFF8"></path>
                <path d="M19.3719799,7.60945501 C19.9319141,8.00392503 20.4420434,8.46414037 20.8913308,8.98014398 C21.3322472,9.48730889 21.7145221,10.0421839 22.0309615,10.634327 C22.3485875,11.2294814 22.591043,11.8614591 22.7528059,12.5158666 C22.9172886,13.1778205 23,13.8491306 23,14.5293292 C23,15.7016659 22.7748936,16.8014918 22.3256206,17.8288068 C21.8758777,18.8561218 21.2682313,19.7515139 20.5022115,20.5140473 C19.7361918,21.2765808 18.8371759,21.8814617 17.804694,22.3291577 C16.773152,22.7763859 15.6682977,23 14.490601,23 C13.325123,23 12.226848,22.7763859 11.1948361,22.3286899 C10.1628241,21.8814617 9.2605186,21.276113 8.48791949,20.5135795 C7.71579035,19.7510461 7.10814397,18.8561218 6.66451043,17.8288068 C6.22228672,16.8014918 6,15.7016659 6,14.5293292 C6,13.8612938 6.07895173,13.2058892 6.23732516,12.5631156 C6.39257649,11.9286776 6.61878197,11.3135627 6.91170453,10.7292928 C7.20542512,10.1457693 7.568989,9.59976391 7.99447116,9.10317854 C8.42503285,8.59895715 8.90907251,8.14252982 9.43816,7.74184579 C9.71637087,7.53975104 10.0171394,7.46443332 10.3404655,7.51495698 C10.6561264,7.56105199 10.9400244,7.73125593 11.128573,7.98744706 C11.3276749,8.23817582 11.4105189,8.5612424 11.3564992,8.87628973 C11.3119724,9.19368912 11.1408789,9.47985168 10.8818488,9.67016661 C10.0838724,10.2502534 9.47293634,10.9622632 9.04857081,11.8066637 C8.62420524,12.6515321 8.41225742,13.5590872 8.41225742,14.5293292 C8.41225742,15.3615666 8.57063085,16.1460873 8.88690771,16.8833589 C9.19191259,17.6036732 9.63376406,18.2585892 10.1882015,18.8121475 C10.7454225,19.3648399 11.4027048,19.8075417 12.1253386,20.116875 C12.8714102,20.4393002 13.6767975,20.6034046 14.490131,20.5987213 C15.3261735,20.5987213 16.114281,20.4382618 16.8549234,20.116875 C17.577741,19.807623 18.2351919,19.3649149 18.7925305,18.8121475 C19.3477813,18.2573095 19.7925075,17.6028596 20.1032233,16.8833589 C20.4270718,16.1408314 20.5919257,15.3392728 20.5872726,14.529797 C20.5872726,13.5464563 20.3593465,12.6164462 19.9034942,11.7407022 C19.4541774,10.8719179 18.7949675,10.1279349 17.9851551,9.57566859 C17.7152055,9.39945083 17.5325834,9.1179297 17.4823077,8.80050419 C17.4249738,8.47303583 17.4917068,8.17036151 17.6815669,7.89294904 C17.871427,7.62816749 18.1308398,7.46724017 18.4602753,7.41110273 C18.7892409,7.35402969 19.0932991,7.42045896 19.3719799,7.60945501 L19.3719799,7.60945501 Z M14.490601,14.5864023 C14.1616354,14.5864023 13.879665,14.4694493 13.6451595,14.2364789 C13.4162471,14.0163172 13.2890146,13.7117054 13.2936363,13.3948853 L13.2936363,6.2102295 C13.2936363,5.88276113 13.411124,5.5987993 13.6451595,5.35881178 C13.879665,5.11975987 14.1611655,5 14.490601,5 C14.8322552,5 15.120335,5.11975987 15.3548405,5.35927957 C15.5827923,5.58390246 15.7094667,5.89096019 15.7058937,6.2102295 L15.7058937,13.3948853 C15.7058937,13.7223536 15.588876,14.0030408 15.3548405,14.2364789 C15.120335,14.4694493 14.8322552,14.5864023 14.490131,14.5864023 L14.490601,14.5864023 Z" id="形状" fill="url(#linearGradient-1)"></path>
            </g>
        </g>
    </g>
</svg>
