<?xml version="1.0" encoding="UTF-8"?>
<svg width="20px" height="20px" viewBox="0 0 20 20" version="1.1" xmlns="http://www.w3.org/2000/svg" xmlns:xlink="http://www.w3.org/1999/xlink">
    <!-- Generator: Sketch 62 (91390) - https://sketch.com -->
    <title>shouji-2</title>
    <desc>Created with Sketch.</desc>
    <g id="登陆" stroke="none" stroke-width="1" fill="none" fill-rule="evenodd">
        <g id="登陆3" transform="translate(-228.000000, -663.000000)" fill="#BEC6CF" fill-rule="nonzero">
            <g id="mima" transform="translate(228.000000, 663.000000)">
                <path d="M15.25,8.85714286 L14.6666667,8.85714286 L14.6666667,6.27789286 C14.6666667,3.91908929 12.5731563,2 10,2 C7.42684375,2 5.33333333,3.91908929 5.33333333,6.27789286 L5.33333333,8.85714286 L4.75,8.85714286 C3.78498438,8.85714286 3,9.62610714 3,10.5714286 L3,16.2857143 C3,17.2310357 3.78498438,18 4.75,18 L15.25,18 C16.2150156,18 17,17.2310357 17,16.2857143 L17,10.5714286 C17,9.62610714 16.2150156,8.85714286 15.25,8.85714286 Z M6.5,6.27789286 C6.5,4.54910714 8.06998698,3.14285714 10,3.14285714 C11.930013,3.14285714 13.5,4.54910714 13.5,6.27789286 L13.5,8.85714286 L6.5,8.85714286 L6.5,6.27789286 Z M15.8333333,16.2857143 C15.8333333,16.601 15.5718542,16.8571429 15.25,16.8571429 L4.75,16.8571429 C4.42814583,16.8571429 4.16666667,16.601 4.16666667,16.2857143 L4.16666667,10.5714286 C4.16666667,10.2561429 4.42814583,10 4.75,10 L15.25,10 C15.5718542,10 15.8333333,10.2561429 15.8333333,10.5714286 L15.8333333,16.2857143 Z" id="形状"></path>
                <path d="M10,12 C9.44771875,12 9,12.3837589 9,12.8571429 C9,13.1743527 9.2011875,13.4511027 9.5,13.5993348 L9.5,14.5714286 C9.5,14.8083214 9.723625,15 10,15 C10.276375,15 10.5,14.8083214 10.5,14.5714286 L10.5,13.5993348 C10.7988125,13.4511161 11,13.1743527 11,12.8571429 C11,12.3837589 10.5522813,12 10,12 Z" id="路径"></path>
            </g>
        </g>
    </g>
</svg>