<?xml version="1.0" encoding="UTF-8"?>
<svg width="20px" height="20px" viewBox="0 0 20 20" version="1.1" xmlns="http://www.w3.org/2000/svg" xmlns:xlink="http://www.w3.org/1999/xlink">
    <!-- Generator: Sketch 62 (91390) - https://sketch.com -->
    <title>shouji-2</title>
    <desc>Created with Sketch.</desc>
    <g id="登陆" stroke="none" stroke-width="1" fill="none" fill-rule="evenodd">
        <g id="登陆3" transform="translate(-229.000000, -521.000000)" fill="#BEC6CF" fill-rule="nonzero">
            <g id="shouji-2" transform="translate(229.000000, 521.000000)">
                <path d="M12.5,18 L6.5,18 C5.1,18 4,16.9 4,15.5 L4,5.5 C4,4.1 5.1,3 6.5,3 L12.5,3 C13.9,3 15,4.1 15,5.5 L15,15.5 C15,16.9 13.9,18 12.5,18 Z M6.5,4 C5.65,4 5,4.65 5,5.5 L5,15.5 C5,16.35 5.65,17 6.5,17 L12.5,17 C13.35,17 14,16.35 14,15.5 L14,5.5 C14,4.65 13.35,4 12.5,4 L6.5,4 Z" id="形状"></path>
                <path d="M14.5,16 L4.5,16 C4.2,16 4,15.8086124 4,15.5215311 C4,15.2344498 4.2,15.0430622 4.5,15.0430622 L14.5,15.0430622 C14.8,15.0430622 15,15.2344498 15,15.5215311 C15,15.8086124 14.8,16 14.5,16 Z M10,6.9569378 L9,6.9569378 C8.7,6.9569378 8.5,6.76555024 8.5,6.4784689 C8.5,6.19138756 8.7,6 9,6 L10,6 C10.3,6 10.5,6.19138756 10.5,6.4784689 C10.5,6.76555024 10.3,6.9569378 10,6.9569378 Z" id="形状"></path>
            </g>
        </g>
    </g>
</svg>