<?xml version="1.0" encoding="UTF-8"?>
<svg width="28px" height="28px" viewBox="0 0 28 28" version="1.1" xmlns="http://www.w3.org/2000/svg" xmlns:xlink="http://www.w3.org/1999/xlink">
    <!-- Generator: Sketch 62 (91390) - https://sketch.com -->
    <title>jiaoshiziliao</title>
    <desc>Created with Sketch.</desc>
    <defs>
        <linearGradient x1="20.3610042%" y1="21.6111695%" x2="70.973924%" y2="75.8190545%" id="linearGradient-1">
            <stop stop-color="#54C6FF" offset="0%"></stop>
            <stop stop-color="#2A94FF" offset="100%"></stop>
        </linearGradient>
    </defs>
    <g id="教学资源和题库" stroke="none" stroke-width="1" fill="none" fill-rule="evenodd">
        <g id="教学资源" transform="translate(-8.000000, -638.000000)" fill="url(#linearGradient-1)" fill-rule="nonzero">
            <g id="tiku-2备份" transform="translate(8.000000, 638.000000)">
                <path d="M13.4413084,8.53878737 C13.6362225,9.19212405 14.2571941,9.61571597 14.9165689,9.61571597 L21.2052653,9.61571597 C21.2024815,8.7671313 20.5089012,8.07990234 19.6524739,8.07714399 L13.2862466,8.07714399 L13.442033,8.53878737 L13.4413084,8.53878737 Z M12.8210613,6.53857198 L19.6524739,6.53857198 C21.3656575,6.5433048 22.7532802,7.91822054 22.7580567,9.61571597 L22.7580567,10.2310012 C23.495687,10.807517 24,11.6920343 24,12.692142 L24,21.922856 C23.9952234,23.6203514 22.6076008,24.9952672 20.8944172,25 L6.10558278,25 C4.39239919,24.9952672 3.00477656,23.6203514 3,21.922856 L3,8.07714399 C3.00477656,6.37964855 4.39239919,5.00473282 6.10558278,5 L10.1038576,5 C11.2291422,5 12.2776206,5.6152852 12.8210613,6.53857198 Z M10.1038576,6.53857198 L6.10558278,6.53857198 C5.24915553,6.54133034 4.55557523,7.22855931 4.55279138,8.07714399 L4.55279138,21.922138 C4.55557523,22.7707227 5.24915553,23.4579517 6.10558278,23.4607101 L20.8560141,23.4607101 C21.7124413,23.4579517 22.4060216,22.7707227 22.4088055,21.922138 L22.4088055,12.692142 C22.4060216,11.8435573 21.7124413,11.1563284 20.8560141,11.15357 L14.9940998,11.15357 C13.6362225,11.15357 12.4326824,10.2690527 12.0450279,8.99971283 L11.5783935,7.61550059 C11.384204,6.9621639 10.8023601,6.53857198 10.1038576,6.53857198 L10.1038576,6.53857198 Z M7.65837416,19.615357 L13.8688151,19.615357 C14.2963219,19.615357 14.6448485,19.9614101 14.6448485,20.385002 C14.6448485,20.8078759 14.2955973,21.153929 13.8688151,21.153929 L7.65837416,21.153929 C7.23086743,21.153929 6.88161618,20.8078759 6.88161618,20.385002 C6.88161618,19.9614101 7.23086745,19.615357 7.65837416,19.615357 Z" id="形状"></path>
            </g>
        </g>
    </g>
</svg>