<?xml version="1.0" encoding="UTF-8"?>
<svg width="28px" height="28px" viewBox="0 0 28 28" version="1.1" xmlns="http://www.w3.org/2000/svg" xmlns:xlink="http://www.w3.org/1999/xlink">
    <!-- Generator: Sketch 62 (91390) - https://sketch.com -->
    <title>jiaoshiziliao</title>
    <desc>Created with Sketch.</desc>
    <g id="教学资源和题库" stroke="none" stroke-width="1" fill="none" fill-rule="evenodd" opacity="0.6484375">
        <g id="教学资源" transform="translate(-44.000000, -638.000000)" fill="#FFFFFF" fill-rule="nonzero">
            <g id="tiku-2" transform="translate(44.000000, 638.000000)">
                <path d="M13.4413084,7.53878737 C13.6362225,8.19212405 14.2571941,8.61571597 14.9165689,8.61571597 L21.2052653,8.61571597 C21.2024815,7.7671313 20.5089012,7.07990234 19.6524739,7.07714399 L13.2862466,7.07714399 L13.442033,7.53878737 L13.4413084,7.53878737 Z M12.8210613,5.53857198 L19.6524739,5.53857198 C21.3656575,5.5433048 22.7532802,6.91822054 22.7580567,8.61571597 L22.7580567,9.23100119 C23.495687,9.80751697 24,10.6920343 24,11.692142 L24,20.922856 C23.9952234,22.6203514 22.6076008,23.9952672 20.8944172,24 L6.10558278,24 C4.39239919,23.9952672 3.00477656,22.6203514 3,20.922856 L3,7.07714399 C3.00477656,5.37964855 4.39239919,4.00473282 6.10558278,4 L10.1038576,4 C11.2291422,4 12.2776206,4.6152852 12.8210613,5.53857198 Z M10.1038576,5.53857198 L6.10558278,5.53857198 C5.24915553,5.54133034 4.55557523,6.22855931 4.55279138,7.07714399 L4.55279138,20.922138 C4.55557523,21.7707227 5.24915553,22.4579517 6.10558278,22.4607101 L20.8560141,22.4607101 C21.7124413,22.4579517 22.4060216,21.7707227 22.4088055,20.922138 L22.4088055,11.692142 C22.4060216,10.8435573 21.7124413,10.1563284 20.8560141,10.15357 L14.9940998,10.15357 C13.6362225,10.15357 12.4326824,9.26905265 12.0450279,7.99971283 L11.5783935,6.61550059 C11.384204,5.9621639 10.8023601,5.53857198 10.1038576,5.53857198 L10.1038576,5.53857198 Z M7.65837416,18.615357 L13.8688151,18.615357 C14.2963219,18.615357 14.6448485,18.9614101 14.6448485,19.385002 C14.6448485,19.8078759 14.2955973,20.153929 13.8688151,20.153929 L7.65837416,20.153929 C7.23086743,20.153929 6.88161618,19.8078759 6.88161618,19.385002 C6.88161618,18.9614101 7.23086745,18.615357 7.65837416,18.615357 Z" id="形状"></path>
            </g>
        </g>
    </g>
</svg>