<?xml version="1.0" encoding="UTF-8"?>
<svg width="28px" height="28px" viewBox="0 0 28 28" version="1.1" xmlns="http://www.w3.org/2000/svg" xmlns:xlink="http://www.w3.org/1999/xlink">
    <!-- Generator: Sketch 62 (91390) - https://sketch.com -->
    <title>刷新</title>
    <desc>Created with Sketch.</desc>
    <defs>
        <linearGradient x1="50%" y1="0%" x2="50%" y2="100%" id="linearGradient-1">
            <stop stop-color="#54C6FF" offset="0%"></stop>
            <stop stop-color="#2A94FF" offset="100%"></stop>
        </linearGradient>
    </defs>
    <g id="班级管理" stroke="none" stroke-width="1" fill="none" fill-rule="evenodd">
        <g transform="translate(-1796.000000, -14.000000)" fill-rule="nonzero" id="编组-3">
            <g transform="translate(1796.000000, 14.000000)">
                <g id="tuichu备份" fill="#E7EFF8">
                    <path d="M0,14 C0,21.7319865 6.2680135,28 14,28 C21.7319865,28 28,21.7319865 28,14 C28,6.2680135 21.7319865,0 14,0 C6.2680135,0 0,6.2680135 0,14 Z" id="路径"></path>
                </g>
                <g id="shuaxin" transform="translate(6.000000, 6.000000)" fill="url(#linearGradient-1)">
                    <path d="M8.61921186,0 C10.6528863,0 12.5741711,0.69808062 14.0987145,1.93668949 L15.1302316,0.956608466 C15.23655,0.855882234 15.3948726,0.823190969 15.5356089,0.872904113 C15.6763452,0.922617258 15.7737272,1.04563264 15.7849506,1.18787885 L16.1052632,5.1 L11.9860433,4.79569687 C11.8365412,4.78460691 11.7074776,4.69193077 11.6554581,4.558315 C11.6034386,4.42469923 11.6379621,4.27454236 11.743887,4.17370125 L12.7803777,3.18922255 C11.5938751,2.28373976 10.1330229,1.78622395 8.62063769,1.78947368 C4.86211951,1.78947368 1.81509622,4.79323309 1.81509622,8.5 C1.81509622,12.2067669 4.86211951,15.2105263 8.61921186,15.2105263 C11.7631924,15.2105263 14.4751429,13.0915622 15.2237097,10.1261487 C15.3655723,9.66814592 15.8414408,9.39983621 16.308696,9.51439919 C16.7759512,9.62896217 17.0724092,10.0866331 16.9846239,10.5578947 C16.0364393,14.3172097 12.6015871,17 8.61921186,17 C3.85975293,17 0,13.1938179 0,8.5 C0,3.80618212 3.85975293,0 8.61921186,0 Z" id="形状结合"></path>
                </g>
            </g>
        </g>
    </g>
</svg>
