<?xml version="1.0" encoding="UTF-8"?>
<svg width="28px" height="28px" viewBox="0 0 28 28" version="1.1" xmlns="http://www.w3.org/2000/svg" xmlns:xlink="http://www.w3.org/1999/xlink">
    <!-- Generator: Sketch 62 (91390) - https://sketch.com -->
    <title>jiaoshiziliao</title>
    <desc>Created with Sketch.</desc>
    <defs>
        <linearGradient x1="20.3610042%" y1="18.7013144%" x2="70.973924%" y2="78.4655076%" id="linearGradient-1">
            <stop stop-color="#54C6FF" offset="0%"></stop>
            <stop stop-color="#2A94FF" offset="100%"></stop>
        </linearGradient>
    </defs>
    <g id="教学资源和题库" stroke="none" stroke-width="1" fill="none" fill-rule="evenodd">
        <g id="教学资源" transform="translate(-44.000000, -577.000000)" fill="url(#linearGradient-1)" fill-rule="nonzero">
            <g id="ziyuan-3备份" transform="translate(44.000000, 577.000000)">
                <path d="M10.14,4.68 C10.6008546,4.68731652 10.9726835,5.05914543 10.98,5.52 L10.98,10.14 C10.9726835,10.6008546 10.6008546,10.9726835 10.14,10.98 L5.52,10.98 C5.05914543,10.9726835 4.68731652,10.6008546 4.68,10.14 L4.68,5.52 C4.68731652,5.05914543 5.05914543,4.68731652 5.52,4.68 L10.14,4.68 M10.14,3 L5.52,3 C4.12979963,3.00375225 3.00375225,4.12979963 3,5.52 L3,10.14 C3.00375225,11.5302004 4.12979963,12.6562478 5.52,12.66 L10.14,12.66 C11.5302004,12.6562478 12.6562478,11.5302004 12.66,10.14 L12.66,5.52 C12.6562478,4.12979963 11.5302004,3.00375225 10.14,3 Z M10.14,16.02 C10.6008546,16.0273165 10.9726835,16.3991454 10.98,16.86 L10.98,21.48 C10.9726835,21.9408546 10.6008546,22.3126835 10.14,22.32 L5.52,22.32 C5.05914543,22.3126835 4.68731652,21.9408546 4.68,21.48 L4.68,16.86 C4.68731652,16.3991454 5.05914543,16.0273165 5.52,16.02 L10.14,16.02 M10.14,14.34 L5.52,14.34 C4.12979963,14.3437522 3.00375225,15.4697996 3,16.86 L3,21.48 C3.00375225,22.8702004 4.12979963,23.9962478 5.52,24 L10.14,24 C11.5302004,23.9962478 12.6562478,22.8702004 12.66,21.48 L12.66,16.86 C12.6562478,15.4697996 11.5302004,14.3437522 10.14,14.34 L10.14,14.34 Z M21.48,16.02 C21.9408546,16.0273165 22.3126835,16.3991454 22.32,16.86 L22.32,21.48 C22.3126835,21.9408546 21.9408546,22.3126835 21.48,22.32 L16.86,22.32 C16.3991454,22.3126835 16.0273165,21.9408546 16.02,21.48 L16.02,16.86 C16.0273165,16.3991454 16.3991454,16.0273165 16.86,16.02 L21.48,16.02 M21.48,14.34 L16.86,14.34 C15.4697996,14.3437522 14.3437522,15.4697996 14.34,16.86 L14.34,21.48 C14.3437522,22.8702004 15.4697996,23.9962478 16.86,24 L21.48,24 C22.8702004,23.9962478 23.9962478,22.8702004 24,21.48 L24,16.86 C23.9962478,15.4697996 22.8702004,14.3437522 21.48,14.34 L21.48,14.34 Z" id="形状"></path>
                <path d="M19,4.73913043 C20.8009285,4.73913043 22.2608696,6.19907147 22.2608696,8 C22.2608696,9.80092853 20.8009285,11.2608696 19,11.2608696 C17.1990715,11.2608696 15.7391304,9.80092853 15.7391304,8 C15.7401055,6.19947552 17.1994755,4.74010554 19,4.73913043 M19,3 C16.2385763,3 14,5.23857625 14,8 C14,10.7614237 16.2385763,13 19,13 C21.7614237,13 24,10.7614237 24,8 C24,5.23857625 21.7614237,3 19,3 L19,3 Z" id="形状"></path>
            </g>
        </g>
    </g>
</svg>