<?xml version="1.0" encoding="UTF-8"?>
<svg width="28px" height="28px" viewBox="0 0 28 28" version="1.1" xmlns="http://www.w3.org/2000/svg" xmlns:xlink="http://www.w3.org/1999/xlink">
    <!-- Generator: Sketch 62 (91390) - https://sketch.com -->
    <title>jiaoshiziliao</title>
    <desc>Created with Sketch.</desc>
    <defs>
        <linearGradient x1="36.2918676%" y1="6.10450562%" x2="77.407533%" y2="90.1165867%" id="linearGradient-1">
            <stop stop-color="#54C6FF" offset="0%"></stop>
            <stop stop-color="#2A94FF" offset="100%"></stop>
        </linearGradient>
    </defs>
    <g id="班级管理" stroke="none" stroke-width="1" fill="none" fill-rule="evenodd" opacity="0.650018601">
        <g transform="translate(-9.000000, -233.000000)" fill="url(#linearGradient-1)" fill-rule="nonzero" id="xueshengguanli备份">
            <g transform="translate(9.000000, 233.000000)">
                <path d="M24.7657143,18.1720677 L24.7657143,14.7907171 C24.7657143,14.5197575 24.6342857,14.2600878 24.4114286,14.085093 C24.1828571,13.9270332 23.9085714,13.8592933 23.6171429,13.9100983 C22.4914286,13.9044533 21.3771429,14.0060631 20.2857143,14.2092829 C20.2228571,14.096383 20.1314286,14.0004181 20.0114286,13.9326782 L18.5085714,12.572235 C20.0971429,11.4037215 21.1371429,9.52958394 21.1371429,7.41271169 C21.1371429,3.87330128 18.2171429,1 14.6457143,1 C11.0628571,1 8.15428571,3.88459126 8.15428571,7.41271169 C8.13714286,9.46184403 9.11428571,11.2908217 10.6057143,12.4593351 L9.12,13.8762283 C8.97782843,14.0173531 8.93008468,14.085093 8.81714286,14.2092829 C7.74857143,14.0173531 6.66285714,13.9213883 5.56,13.9270332 C5.26857143,13.8762283 4.97714286,13.9439682 4.76571429,14.102028 C4.53714286,14.2770228 4.41142857,14.5366925 4.41142857,14.8076521 L4.41142857,18.1890027 C4.37714286,18.1890027 4.37714286,21.2203638 4.41142857,21.2034288 L4.41142857,24.4267196 C4.41142857,24.889609 4.78285714,25.3412084 5.30285714,25.4823333 C5.35428571,25.4992682 5.41714286,25.4992682 5.46285714,25.5162032 C8.20571429,25.5952331 11.0457143,26.3629521 13.9314286,27.7911353 C14.1085714,27.9379051 14.3371429,28 14.5828571,28 L14.6171429,28 C14.8457143,28 15.0685714,27.9379051 15.2342857,27.7911353 C18.12,26.3629521 20.9771429,25.5952331 23.7028571,25.5162032 C23.7657143,25.5162032 23.8171429,25.4992682 23.8628571,25.4823333 C24.3828571,25.3355635 24.7542857,24.889609 24.7542857,24.4267196 L24.7542857,21.2034288 L24.7657143,18.1720677 Z M24.5714286,21.1808488 C25.3604068,21.1808488 26,20.5490115 26,19.7696007 C26,18.9901898 25.3604068,18.3583525 24.5714286,18.3583525 C23.7824504,18.3583525 23.1428571,18.9901898 23.1428571,19.7696007 C23.1428571,20.5490115 23.7824504,21.1808488 24.5714286,21.1808488 Z M4.42857143,21.1808488 C5.21754964,21.1808488 5.85714286,20.5490115 5.85714286,19.7696007 C5.85714286,18.9901898 5.21754964,18.3583525 4.42857143,18.3583525 C3.63959321,18.3583525 3,18.9901898 3,19.7696007 C3,20.5490115 3.63959321,21.1808488 4.42857143,21.1808488 Z M9.98857143,7.45787163 C9.98857143,4.94020489 12.0514286,2.89107255 14.5942857,2.89107255 C15.9085714,2.89107255 17.1085714,3.43863684 17.9542857,4.3192557 C18.7314286,5.13777964 19.2171429,6.22726322 19.2171429,7.44658164 C19.2171429,8.07317583 19.0857143,8.68283504 18.8457143,9.22475434 C18.1485714,10.8618022 16.5085714,12.0133807 14.5942857,12.0133807 C12.0457143,12.0077357 9.98857143,9.97553837 9.98857143,7.45787163 L9.98857143,7.45787163 Z M13.7485714,26.0129626 C11.0228571,24.7654192 8.50285714,24.0710851 5.89142857,23.9468953 L5.89142857,15.5189212 C8.68,15.5527911 11.2228571,16.2866402 13.7485714,17.7317583 L13.7485714,26.0129626 Z M14.5942857,16.3092202 C13.2514286,15.5527911 12.2685714,14.9770019 10.8571429,14.5818524 L12.1314286,13.306084 C12.9257143,13.6560736 13.7028571,13.8536483 14.6457143,13.8536483 C15.4914286,13.8536483 16.1885714,13.6955885 16.9314286,13.3907589 L18.1428571,14.6100774 C16.7714286,15.0052268 15.8914286,15.5753711 14.5942857,16.3092202 L14.5942857,16.3092202 Z M23.1542857,23.9299603 C20.5771429,24.0597951 18.2571429,24.7315492 15.5771429,25.9508677 L15.5771429,17.6527284 C18.0742857,16.2414802 20.3942857,15.5189212 23.1542857,15.4906962 L23.1542857,23.9299603 Z" id="形状"></path>
            </g>
        </g>
    </g>
</svg>