<?xml version="1.0" encoding="UTF-8"?>
<svg width="28px" height="28px" viewBox="0 0 28 28" version="1.1" xmlns="http://www.w3.org/2000/svg" xmlns:xlink="http://www.w3.org/1999/xlink">
    <!-- Generator: Sketch 62 (91390) - https://sketch.com -->
    <title>jiaoshiziliao</title>
    <desc>Created with Sketch.</desc>
    <defs>
        <linearGradient x1="28.8790203%" y1="6.18405309%" x2="95.7466919%" y2="100%" id="linearGradient-1">
            <stop stop-color="#54C6FF" offset="0%"></stop>
            <stop stop-color="#2A94FF" offset="100%"></stop>
        </linearGradient>
    </defs>
    <g id="班级管理" stroke="none" stroke-width="1" fill="none" fill-rule="evenodd" opacity="0.650018601">
        <g transform="translate(-9.000000, -170.000000)" fill="url(#linearGradient-1)" fill-rule="nonzero" id="jiaoshiziliao备份">
            <g transform="translate(9.000000, 170.000000)">
                <path d="M14.0079281,3 C16.9295498,3 19.5123496,4.87053989 20.3846401,7.61820318 C21.2569307,10.3658665 20.2163921,13.3533575 17.8156392,14.9940632 C22.1334355,16.566536 25.0003369,20.6227466 25,25.1587941 L24.966784,25.1584903 C24.9328545,25.6288221 24.5348938,26 24.0489557,26 C23.5407582,26 23.1287827,25.5940382 23.1287827,25.093259 C23.1287827,25.079086 23.1291127,25.064989 23.1297655,25.0509749 L23.1320662,25.1587941 C23.1322709,20.5036418 19.5265051,16.6181717 14.8211977,16.20324 L17.2610066,21.3571083 L14.0079281,25.1743689 L10.7548495,21.3571083 L13.1946584,16.20324 C8.48935103,16.6181717 4.88358518,20.5036418 4.8837899,25.1587941 L4.83800127,25.1584903 C4.80407176,25.6288221 4.40611108,26 3.92017292,26 C3.41197545,26 3,25.5940382 3,25.093259 C3,25.0315383 3.00625807,24.9712579 3.01818305,24.9130004 L3.01585611,25.1587941 C3.01585611,20.4962424 6.00598706,16.5218171 10.2002169,14.9940632 C7.79946399,13.3533575 6.7589254,10.3658665 7.63121597,7.61820318 C8.50350654,4.87053989 11.0863064,3 14.0079281,3 Z M14.0079281,18.8396419 L12.9503902,21.0725128 L14.0079281,22.3114235 L15.0654659,21.0725128 L14.0079281,18.8396419 Z M14.0079281,4.84065963 C11.3494934,4.84065963 9.19440635,6.96428851 9.19440635,9.5839175 C9.19440635,12.2035465 11.3494934,14.3271754 14.0079281,14.3271754 C16.6663627,14.3271754 18.8214498,12.2035465 18.8214498,9.5839175 C18.8214498,6.96428851 16.6663627,4.84065963 14.0079281,4.84065963 Z" id="形状结合"></path>
            </g>
        </g>
    </g>
</svg>