<?xml version="1.0" encoding="UTF-8"?>
<svg width="28px" height="28px" viewBox="0 0 28 28" version="1.1" xmlns="http://www.w3.org/2000/svg" xmlns:xlink="http://www.w3.org/1999/xlink">
    <!-- Generator: Sketch 62 (91390) - https://sketch.com -->
    <title>jiaoshiziliao</title>
    <desc>Created with Sketch.</desc>
    <g id="班级管理" stroke="none" stroke-width="1" fill="none" fill-rule="evenodd" opacity="0.650018601">
        <g transform="translate(-42.000000, -351.000000)" fill="#FFFFFF" fill-rule="nonzero" id="shiziku">
            <g transform="translate(42.000000, 351.000000)">
                <path d="M17.6418855,13.3189056 C18.8321683,12.362806 19.600044,10.8817516 19.600044,9.21735096 C19.600044,6.34039113 17.312415,4 14.4999863,4 C11.6876675,4 9.400011,6.34027865 9.400011,9.21735096 C9.400011,10.8817797 10.1687113,12.362806 11.3581695,13.3189056 C8.22377448,14.6003602 6,17.7331048 6,21.3912261 L6,23.1303431 C6,23.6110081 6.38015823,24 6.85009208,24 L22.1501003,24 C22.6199517,24 23,23.6110924 23,23.1303431 L23,21.3912542 C23,17.7321206 20.7770776,14.6003602 17.6418855,13.3189056 Z M14.5000962,5.73908887 C16.3751861,5.73908887 17.9000522,7.29902154 17.9000522,9.21729472 C17.9000522,11.1356522 16.3752136,12.6956693 14.5000962,12.6956693 C12.6248963,12.6956693 11.1000027,11.1357085 11.1000027,9.21729472 C11.1000027,7.29904967 12.6248413,5.73908887 14.5000962,5.73908887 Z M21.3000082,22.2609111 L7.69993678,22.2609111 L7.69993678,21.3912823 C7.69993678,17.5555515 10.7504661,14.4348144 14.5008109,14.4348144 C18.2502486,14.4348144 21.3000082,17.5555515 21.3000082,21.3912823 L21.3000082,22.2609111 L21.3000082,22.2609111 Z" id="形状"></path>
                <path d="M8.41057948,14.007538 C8.4346425,13.9534477 8.4346425,13.8957996 8.44653212,13.8398581 C8.45504498,13.8057841 8.46457938,13.7735035 8.46889256,13.7376361 C8.4756461,13.6669427 8.47150317,13.5996914 8.46199715,13.5307046 C8.45862038,13.4940563 8.46713324,13.4590277 8.45862038,13.4223794 C8.45348429,13.4013507 8.43895568,13.386541 8.4328548,13.3655123 C8.4192626,13.3254218 8.40042081,13.2895834 8.38155064,13.2520673 C8.34539937,13.175155 8.30609834,13.1053293 8.25209844,13.0433135 C8.24435174,13.0346359 8.2349876,13.028417 8.22641799,13.0196815 C8.14825691,12.9362463 8.05441544,12.8697072 7.95048787,12.8240309 C7.00099205,12.3925813 6.38741361,11.4316254 6.38741361,10.3730177 C6.38741361,9.12740802 7.21511881,8.05474264 8.40101671,7.76392779 C8.87231691,7.64770598 9.16195272,7.16462475 9.04893034,6.68417572 C8.93412026,6.20384238 8.45842175,5.912073 7.9896754,6.02381139 C6.01281947,6.5094959 4.63237439,8.29846711 4.63237439,10.3729309 C4.63237439,11.5050088 5.05486754,12.5662198 5.77289875,13.3732932 C3.48932454,14.5796512 2,16.992107 2,19.7218443 L2,21.1054565 C2,21.5998765 2.39244276,22 2.87736354,22 C3.36239782,22 3.75492572,21.5999633 3.75492572,21.1054565 L3.75492572,19.7218443 C3.75492572,17.2480669 5.38647174,15.1254714 7.7275645,14.5245486 C8.01878937,14.4826358 8.28368114,14.3018817 8.41040923,14.0075091 L8.41057948,14.007538 Z M23.2270729,13.3734378 C23.9451325,12.5663355 24.3675121,11.5050667 24.3675121,10.3729888 C24.3675121,8.35264418 23.0324973,6.57593729 21.1208215,6.05270775 C20.6538061,5.92514723 20.1722053,6.20734234 20.045307,6.68417572 C19.9193734,7.16199255 20.1970061,7.65201585 20.6649863,7.78050198 C21.8114697,8.09399425 22.6126431,9.16058532 22.6126431,10.3730177 C22.6126431,11.4315965 22.0000295,12.3907012 21.0514133,12.8231342 C20.9452296,12.8703403 20.8517301,12.9357114 20.7713119,13.0213592 C20.7644165,13.0292558 20.7558185,13.0344913 20.7489515,13.0423879 C20.694157,13.1043748 20.6547993,13.1760516 20.6178251,13.2537739 C20.599863,13.2912611 20.5801983,13.3262896 20.5673155,13.3655123 C20.5613281,13.3855575 20.5467143,13.4013507 20.541635,13.4222926 C20.5331221,13.458941 20.541635,13.4939406 20.5381164,13.5306178 C20.5287522,13.5996336 20.5245525,13.6668849 20.5313628,13.737665 C20.5357044,13.7733878 20.5450969,13.8057262 20.5536098,13.8398002 C20.5655561,13.8957128 20.5655561,13.9533609 20.5895624,14.0076248 C20.7164891,14.3019106 20.9812674,14.4828383 21.2724639,14.5245775 C23.6135283,15.125645 25.2450743,17.2480958 25.2450743,19.7218732 L25.2450743,21.1056012 C25.2450743,21.5999054 25.637517,21.9999421 26.1226365,21.9999421 C26.6075572,21.9999421 27,21.5999054 27,21.1056012 L27,19.7218732 C27,16.9921649 25.5107606,14.5796223 23.2271013,13.37338 L23.2270729,13.3734378 Z" id="形状"></path>
            </g>
        </g>
    </g>
</svg>