<?xml version="1.0" encoding="UTF-8"?>
<svg width="30px" height="30px" viewBox="0 0 30 30" version="1.1" xmlns="http://www.w3.org/2000/svg" xmlns:xlink="http://www.w3.org/1999/xlink">
    <!-- Generator: Sketch 62 (91390) - https://sketch.com -->
    <title>编组 4</title>
    <desc>Created with Sketch.</desc>
    <g id="1.1" stroke="none" stroke-width="1" fill="none" fill-rule="evenodd">
        <g id="1.1-测评信息-提交" transform="translate(-549.000000, -379.000000)">
            <g id="编组-4" transform="translate(549.000000, 379.000000)">
                <path d="M8,0 L30,0 L30,0 L30,22 C30,26.418278 26.418278,30 22,30 L0,30 L0,30 L0,8 C-5.41083001e-16,3.581722 3.581722,8.11624501e-16 8,0 Z" id="矩形备份-2" fill="#464646"></path>
                <path d="M16.6546792,16.5596316 L13.0356218,18.9165723 C12.9283476,18.9732169 12.8094946,19 12.690301,19 C12.5711075,19 12.4491895,18.9732169 12.3449802,18.9165723 C12.1338374,18.8063616 12,18.596407 12,18.3759855 L12,13.6259803 C12,13.4027881 12.1311129,13.1956042 12.3449802,13.0850856 C12.5591881,12.9721042 12.8241384,12.9721042 13.0356218,13.082315 L16.6546792,15.4606643 C16.8688871,15.5736457 17,15.7808296 17,16.001559 C17,16.2275218 16.8692276,16.4347057 16.6546792,16.5449165 L16.6546792,16.5596316 Z M25.4773414,12.1959452 C24.8442357,11.9290837 24.1443258,12.3769317 23.6554711,12.632649 L21.3383916,13.8474804 L21.3383916,10.4189872 C21.3383916,9.63650616 20.6384405,9 19.7814123,9 L7.55697931,9 C6.69650305,9 6,9.63615777 6,10.4189872 L6,21.5841483 C6,22.3666293 6.69956797,23 7.55697931,23 L19.7783474,23 C20.6388237,23 21.3353267,22.3638422 21.3353267,21.5841483 L21.3353267,18.0250093 L23.6524061,19.2429762 C24.1412609,19.4986935 24.9919347,19.8617413 25.4773414,19.606024 C25.9661961,19.3503067 25.9894076,18.5273858 25.9894076,18.0159512 L25.9894076,13.859674 C25.9924725,13.3451039 26.1104471,12.4628066 25.4773414,12.1959452 Z" id="形状" fill="#FFFFFF" fill-rule="nonzero"></path>
            </g>
        </g>
    </g>
</svg>