<?xml version="1.0" encoding="UTF-8"?>
<svg width="13px" height="16px" viewBox="0 0 13 16" version="1.1" xmlns="http://www.w3.org/2000/svg" xmlns:xlink="http://www.w3.org/1999/xlink">
    <!-- Generator: Sketch 62 (91390) - https://sketch.com -->
    <title>yuyin-2</title>
    <desc>Created with Sketch.</desc>
    <g id="班级管理" stroke="none" stroke-width="1" fill="none" fill-rule="evenodd">
        <g id="课程详情-预习-基本信息" transform="translate(-341.000000, -424.000000)" fill="#FFFFFF" fill-rule="nonzero">
            <g id="yuyin-2" transform="translate(340.000000, 424.000000)">
                <path d="M9.53733333,16 L8,14.7282759 C10.336,13.0747586 11.822,10.6228965 11.822,7.87972414 C11.822,5.26675862 10.47,2.92082759 8.32200001,1.27448277 L9.86399999,0 C12.404,1.9724138 14,4.768 14,7.87751723 C14,11.1177931 12.268,14.0182069 9.53733333,16 Z" id="路径"></path>
                <path d="M6.23751076,13 L4.78459537,11.5705882 C6.10581915,10.8517647 7.00058366,9.46941176 7.00058366,7.87941176 C7.00058366,6.43647058 6.26212602,5.16411764 5.13782427,4.40411765 L6.56489365,3 C8.11087365,4.18767206 9.00709515,5.98353191 8.99995769,7.87941176 C8.99995769,10.01 7.90457886,11.8876471 6.23751076,13 L6.23751076,13 Z M2.42830015,9.56588235 C1.63999662,9.56588235 1,8.93647059 1,8.16058823 C1,7.38411765 1.63999662,6.75588236 2.42830015,6.75588236 C3.21783443,6.75588236 3.85721566,7.38470589 3.85721566,8.16058823 C3.85721566,8.93705882 3.21783443,9.56588235 2.42830015,9.56588235 Z" id="形状"></path>
            </g>
        </g>
    </g>
</svg>